<svg width="40" height="40" viewBox="0 0 40 40" fill="none" xmlns="http://www.w3.org/2000/svg">
<rect width="40" height="40" rx="20" fill="#FF6633"/>
<path fill-rule="evenodd" clip-rule="evenodd" d="M21.0453 11.0809L15.8747 16.2515C15.5293 16.5969 15.3333 17.0729 15.3333 17.5675V26.8915C15.3333 27.9182 16.1733 28.7582 17.2 28.7582H25.6C26.3467 28.7582 27.0187 28.3102 27.3173 27.6289L30.36 20.5262C31.144 18.6782 29.7907 16.6249 27.784 16.6249H22.5107L23.3973 12.3502C23.4907 11.8835 23.3507 11.4075 23.0147 11.0715C22.464 10.5302 21.5867 10.5302 21.0453 11.0809ZM11.6 28.7582C12.6267 28.7582 13.4667 27.9182 13.4667 26.8915V19.4249C13.4667 18.3982 12.6267 17.5582 11.6 17.5582C10.5733 17.5582 9.73334 18.3982 9.73334 19.4249V26.8915C9.73334 27.9182 10.5733 28.7582 11.6 28.7582Z" fill="white"/>
</svg>
